# xmcd CD database file
# Copyright (C) 1993-1996 Ti Kan
#
# Track frame offsets:
# 150
# 27250
# 44530
# 61112
# 79042
# 96575
# 113247
# 130507
# 150777
# 162187
# 182325
# 203775
# 220697
# 233152
# 240770
#
# Disc length: 3621 seconds
# Revision: 0
# Processed by: cddbd v1.4b41PL1 Copyright (c) Steve Scherf et al.
# Submitted via: CDSpectrumPro v3.2.327
#
DISCID=ae0e230f
DTITLE=Ben Sidran - Life's A Lesson
DYEAR=1900
DGENRE=
TTITLE0=Eliyahu
TTITLE1=Oseh Shalom
TTITLE2=Life's A Lesson
TTITLE3=Ani Ma'amin
TTITLE4=Avinu Malchenu
TTITLE5=Tree Of Life
TTITLE6=B'Rosh Hashana
TTITLE7=Eli Eli
TTITLE8=Shofar Shogood
TTITLE9=Y'Did Nefesh
TTITLE10=Kol Nidre
TTITLE11=Hashivenu
TTITLE12=Hatikva
TTITLE13=Face Your Fears
TTITLE14=Hine Ma Tov
EXTD=
EXTT0=
EXTT1=
EXTT2=
EXTT3=
EXTT4=
EXTT5=
EXTT6=
EXTT7=
EXTT8=
EXTT9=
EXTT10=
EXTT11=
EXTT12=
EXTT13=
EXTT14=
PLAYORDER=
